<?xml version="1.0" encoding="UTF-8" standalone="no"?>
<svg
   xmlns:dc="http://purl.org/dc/elements/1.1/"
   xmlns:cc="http://creativecommons.org/ns#"
   xmlns:rdf="http://www.w3.org/1999/02/22-rdf-syntax-ns#"
   xmlns:svg="http://www.w3.org/2000/svg"
   xmlns="http://www.w3.org/2000/svg"
   width="210mm"
   height="297mm"
   viewBox="0 0 210 297"
   version="1.1"
   id="svg8">
  <defs
     id="defs2" />
  <metadata
     id="metadata5">
    <rdf:RDF>
      <cc:Work
         rdf:about="">
        <dc:format>image/svg+xml</dc:format>
        <dc:type
           rdf:resource="http://purl.org/dc/dcmitype/StillImage" />
        <dc:title></dc:title>
      </cc:Work>
    </rdf:RDF>
  </metadata>
  <g
     id="layer1">
    <path
       style="fill:#0076b4;stroke-width:0.264583"
       d="m 57.347556,217.12513 c -6.832596,-0.80771 -12.97799,-5.81385 -15.147844,-12.3397 -0.301062,-0.90545 -0.671645,-2.81045 -0.823517,-4.23334 -0.185,-1.73326 -0.247389,-19.13413 -0.189041,-52.7256 0.08137,-46.84686 0.117625,-50.25145 0.552204,-51.858334 1.777444,-6.572221 6.99553,-11.742991 13.539662,-13.416888 1.748841,-0.447329 4.735479,-0.473736 53.57812,-0.473736 48.80829,0 51.8301,0.02667 53.57081,0.472858 6.66298,1.707875 11.8495,6.894392 13.55737,13.557369 0.44619,1.740712 0.47286,4.762521 0.47286,53.570811 0,48.84265 -0.0264,51.82928 -0.47374,53.57812 -1.67389,6.5441 -6.84425,11.76181 -13.41688,13.53977 -1.61019,0.43557 -4.95723,0.46802 -52.51979,0.50926 -27.940002,0.0242 -51.655097,-0.0571 -52.700214,-0.18059 z m 29.081974,-25.88523 0.864071,-0.772 0.06991,-26.48594 c 0.07698,-29.16472 0.162401,-27.58595 -1.540198,-28.46639 -0.678463,-0.35085 -1.861661,-0.40173 -7.795154,-0.33521 l -6.995284,0.0784 -0.685498,0.68594 c -0.377024,0.37726 -0.793409,1.15117 -0.925304,1.71979 -0.318987,1.37523 -0.314616,50.71617 0.0046,52.09843 0.135094,0.58496 0.55308,1.32461 0.934485,1.65365 0.679407,0.58612 0.802134,0.59531 7.947178,0.59531 h 7.257113 l 0.864068,-0.772 z m 25.61727,0.49958 c 1.29839,-0.69488 1.30794,-0.81354 1.31285,-16.31704 0.004,-11.70889 0.0792,-14.85103 0.39205,-16.32799 0.80574,-3.80336 2.8833,-6.91593 5.54586,-8.30874 1.18354,-0.61912 1.63114,-0.69727 3.97937,-0.69481 2.22219,0.002 2.84514,0.10039 3.89054,0.61244 1.51223,0.7407 3.24926,2.56872 3.95336,4.16044 1.20108,2.71524 1.27477,3.86117 1.27963,19.8972 0.005,16.21834 0.01,16.28111 1.31286,16.9785 0.31514,0.16865 3.39567,0.27242 8.0874,0.27242 h 7.57838 l 0.78703,-0.78703 0.78703,-0.78703 -0.0944,-17.93224 c -0.10467,-19.875 -0.14539,-20.42582 -1.88734,-25.52705 -1.14664,-3.35788 -2.26099,-5.19709 -4.55446,-7.51704 -2.12051,-2.14498 -4.9384,-3.70121 -8.1754,-4.515 -2.84797,-0.71599 -10.10482,-0.63987 -12.96459,0.13598 -3.42825,0.93008 -5.28382,1.99777 -7.73906,4.45304 l -2.18281,2.18284 v -2.36572 c 0,-2.23963 -0.0411,-2.41179 -0.77165,-3.2298 l -0.77166,-0.86407 -7.08064,-0.0787 c -5.019523,-0.0558 -7.301065,0.0126 -7.837846,0.2349 -1.625111,0.67314 -1.529871,-1.08448 -1.529871,28.23348 v 26.81669 l 0.773398,0.77339 0.773395,0.7734 h 7.313794 c 4.51026,0 7.50891,-0.10442 7.82282,-0.27242 z M 80.431988,130.33931 c 2.370568,-0.43677 4.288707,-1.46536 6.08608,-3.26361 1.86373,-1.86464 2.869684,-3.7766 3.328194,-6.32569 0.892058,-4.95942 -1.880085,-10.19685 -6.573901,-12.42009 -1.70248,-0.80639 -1.96379,-0.85239 -4.842301,-0.85239 -2.874573,0 -3.141519,0.0468 -4.830902,0.84705 -2.474683,1.17224 -4.477065,3.13793 -5.683861,5.57972 -0.863148,1.74646 -0.983898,2.24081 -1.071164,4.38537 -0.0758,1.86271 0.01877,2.78742 0.412368,4.03209 1.273814,4.02821 4.538794,7.02317 8.625241,7.91192 2.05886,0.44777 2.622288,0.46086 4.550246,0.10563 z"
       id="path40" />
    <path
       style="fill:#abd2e6;stroke-width:0.264583"
       d="m 150.73337,159.99732 c 0,-0.65484 0.0516,-0.92273 0.11466,-0.59531 0.0631,0.32742 0.0631,0.8632 0,1.19062 -0.0631,0.32742 -0.11466,0.0595 -0.11466,-0.59531 z m -37.60325,-20.04219 c 0.0415,-2.42073 0.15736,-2.14981 0.2832,0.66194 0.0407,0.90977 -0.0153,1.65391 -0.12441,1.65365 -0.10914,-2.7e-4 -0.1806,-1.04228 -0.15879,-2.31559 z M 66.864069,118.85461 c 0.002,-0.7276 0.05337,-0.99385 0.114185,-0.59167 0.06082,0.40218 0.05919,0.99749 -0.0036,1.32292 -0.0628,0.32542 -0.11256,-0.004 -0.110573,-0.73125 z m 3.231617,-8.06979 c 0.26339,-0.29104 0.538421,-0.52916 0.611182,-0.52916 0.07276,0 -0.08321,0.23812 -0.346599,0.52916 -0.26339,0.29104 -0.538422,0.52917 -0.611182,0.52917 -0.07276,0 0.08321,-0.23813 0.346599,-0.52917 z"
       id="path52" />
    <path
       style="fill:#8ac0dc;stroke-width:0.264583"
       d="m 87.288423,163.5692 c 1.6e-5,-14.11552 0.03209,-19.85125 0.07128,-12.74605 0.03919,7.1052 0.03918,18.65426 -2.4e-5,25.66458 -0.0392,7.01033 -0.07127,1.19699 -0.07125,-12.91853 z m 35.277447,-13.80679 c 0.19099,-0.0764 0.4192,-0.067 0.50711,0.0209 0.0879,0.0879 -0.0684,0.15045 -0.34726,0.13896 -0.30823,-0.0127 -0.37092,-0.0754 -0.15985,-0.15985 z m 1.05833,0 c 0.19099,-0.0764 0.4192,-0.067 0.50712,0.0209 0.0879,0.0879 -0.0684,0.15045 -0.34727,0.13896 -0.30822,-0.0127 -0.37092,-0.0754 -0.15985,-0.15985 z m -8.68164,-9.70873 c 0,-0.0549 0.20836,-0.2633 0.46302,-0.46303 0.41964,-0.3291 0.429,-0.31974 0.0999,0.0999 -0.34565,0.44073 -0.56292,0.58089 -0.56292,0.36313 z m 13.82951,-5.63971 c 0.25743,-0.0671 0.61462,-0.0627 0.79375,0.01 0.17913,0.0725 -0.0315,0.12737 -0.46805,0.12197 -0.43657,-0.005 -0.58313,-0.0647 -0.3257,-0.13177 z m 1.71476,0.008 c 0.1819,-0.0734 0.47956,-0.0734 0.66146,0 0.1819,0.0734 0.0331,0.13345 -0.33073,0.13345 -0.3638,0 -0.51263,-0.0601 -0.33073,-0.13345 z m -44.383854,-7.06841 c 0,-0.0549 0.20836,-0.2633 0.463021,-0.46302 0.419645,-0.32911 0.429004,-0.31975 0.0999,0.0999 -0.345643,0.44073 -0.562917,0.58089 -0.562917,0.36313 z"
       id="path50" />
    <path
       style="fill:#84bdda;stroke-width:0.264583"
       d="m 113.21367,175.47544 c 5e-5,-7.7126 0.0338,-10.82961 0.0751,-6.92669 0.0413,3.90292 0.0412,10.21323 -8e-5,14.02291 -0.0413,3.80969 -0.0751,0.61639 -0.075,-7.09622 z M 75.321206,135.19349 c 1.70987,-0.0461 4.507838,-0.0461 6.217708,0 1.70987,0.0461 0.310886,0.0838 -3.108854,0.0838 -3.419739,0 -4.818724,-0.0377 -3.108854,-0.0838 z"
       id="path48" />
    <path
       style="fill:#67add2;stroke-width:0.264583"
       d="m 46.395453,211.9218 -0.641433,-0.72761 0.727604,0.64143 c 0.400183,0.3528 0.727604,0.68022 0.727604,0.72761 0,0.20751 -0.214259,0.0386 -0.813775,-0.64143 z m 124.638767,0.0661 c 0.34178,-0.3638 0.68094,-0.66146 0.7537,-0.66146 0.0728,0 -0.14734,0.29766 -0.48911,0.66146 -0.34178,0.3638 -0.68094,0.66146 -0.7537,0.66146 -0.0728,0 0.14734,-0.29766 0.48911,-0.66146 z m -38.50581,-36.5125 c 4e-5,-7.85812 0.0338,-11.03464 0.0749,-7.05892 0.0412,3.97571 0.0411,10.40508 -8e-5,14.28749 -0.0412,3.88242 -0.0749,0.62956 -0.0749,-7.22857 z m 11.89005,-35.91718 -0.50403,-0.59531 0.59531,0.50403 c 0.32743,0.27721 0.59532,0.5451 0.59532,0.59531 0,0.21173 -0.21294,0.0554 -0.6866,-0.50403 z m -43.43267,-4.36489 c 1.85539,-0.0455 4.89148,-0.0455 6.74687,0 1.85539,0.0455 0.33735,0.0827 -3.37343,0.0827 -3.71079,0 -5.228832,-0.0372 -3.37344,-0.0827 z M 89.868526,118.98691 c 0,-0.50933 0.05445,-0.71769 0.121002,-0.46302 0.06655,0.25466 0.06655,0.67138 0,0.92604 -0.06655,0.25466 -0.121002,0.0463 -0.121002,-0.46302 z M 46.415478,87.369198 c 0.341775,-0.363802 0.680939,-0.661458 0.7537,-0.661458 0.07276,0 -0.147342,0.297656 -0.489116,0.661458 -0.341774,0.363802 -0.680939,0.661458 -0.7537,0.661458 -0.07276,0 0.147342,-0.297656 0.489116,-0.661458 z m 124.598722,-0.06615 -0.64144,-0.727604 0.72761,0.641433 c 0.40018,0.352788 0.7276,0.68021 0.7276,0.727604 0,0.207506 -0.21426,0.03862 -0.81377,-0.641433 z"
       id="path46" />
    <path
       style="fill:#3391c3;stroke-width:0.264583"
       d="m 77.967039,130.44619 c 0.254662,-0.0666 0.671381,-0.0666 0.926042,0 0.254661,0.0665 0.0463,0.121 -0.463021,0.121 -0.509323,0 -0.717682,-0.0545 -0.463021,-0.121 z"
       id="path44" />
    <path
       style="fill:#1b85bc;stroke-width:0.264583"
       d="m 58.536702,217.23116 c 0.190996,-0.0764 0.419199,-0.067 0.507118,0.0209 0.08792,0.0879 -0.06835,0.15045 -0.347266,0.13896 -0.308224,-0.0127 -0.370919,-0.0754 -0.159852,-0.15985 z m 100.277078,0 c 0.19099,-0.0764 0.4192,-0.067 0.50712,0.0209 0.0879,0.0879 -0.0684,0.15045 -0.34727,0.13896 -0.30822,-0.0127 -0.37092,-0.0754 -0.15985,-0.15985 z M 41.1447,199.79506 c 0.0127,-0.30822 0.07539,-0.37092 0.159853,-0.15985 0.07643,0.19099 0.06703,0.4192 -0.02089,0.50712 -0.08792,0.0879 -0.150452,-0.0683 -0.138964,-0.34727 z m 135.20208,0 c 0.0127,-0.30822 0.0754,-0.37092 0.15985,-0.15985 0.0764,0.19099 0.067,0.4192 -0.0209,0.50712 -0.0879,0.0879 -0.15045,-0.0683 -0.13896,-0.34727 z m -43.18172,-8.51076 c -0.32911,-0.41965 -0.31975,-0.42901 0.0999,-0.0999 0.44073,0.34565 0.58089,0.56292 0.36313,0.56292 -0.0549,0 -0.2633,-0.20836 -0.46302,-0.46302 z M 69.296734,163.70149 c 0,-14.04276 0.03208,-19.78753 0.07129,-12.76615 0.03921,7.02138 0.03921,18.51091 0,25.53229 -0.03921,7.02138 -0.07129,1.27662 -0.07129,-12.76614 z M 116.92693,152.3244 c 0.26339,-0.29104 0.53843,-0.52916 0.61119,-0.52916 0.0728,0 -0.0832,0.23812 -0.3466,0.52916 -0.26339,0.29105 -0.53843,0.52917 -0.61119,0.52917 -0.0728,0 0.0832,-0.23812 0.3466,-0.52917 z m 12.26938,-0.19843 c -0.32911,-0.41965 -0.31975,-0.42901 0.0999,-0.0999 0.25466,0.19972 0.46302,0.40808 0.46302,0.46302 0,0.21776 -0.21727,0.0776 -0.56291,-0.36312 z m -59.252942,-25.13542 -0.641432,-0.7276 0.727604,0.64143 c 0.680056,0.59952 0.848939,0.81378 0.641432,0.81378 -0.04739,0 -0.374814,-0.32743 -0.727604,-0.72761 z M 41.1447,99.517982 c 0.0127,-0.308224 0.07539,-0.370919 0.159853,-0.159852 0.07643,0.190996 0.06703,0.419199 -0.02089,0.507118 -0.08792,0.08792 -0.150452,-0.06835 -0.138964,-0.347266 z m 135.20208,0 c 0.0127,-0.308224 0.0754,-0.370919 0.15985,-0.159852 0.0764,0.190996 0.067,0.419199 -0.0209,0.507118 -0.0879,0.08792 -0.15045,-0.06835 -0.13896,-0.347266 z M 58.536702,82.029083 c 0.190996,-0.07643 0.419199,-0.06703 0.507118,0.02089 0.08792,0.08792 -0.06835,0.150453 -0.347266,0.138964 -0.308224,-0.0127 -0.370919,-0.07539 -0.159852,-0.159852 z m 100.277078,0 c 0.19099,-0.07643 0.4192,-0.06703 0.50712,0.02089 0.0879,0.08792 -0.0684,0.150453 -0.34727,0.138964 -0.30822,-0.0127 -0.37092,-0.07539 -0.15985,-0.159852 z"
       id="path42" />
  </g>
</svg>
